<svg width="24" height="24" viewBox="0 0 24 24" fill="none" xmlns="http://www.w3.org/2000/svg">
<g clip-path="url(#clip0_5174_2504)">
<path d="M15.6861 12.0286C15.4855 11.5796 15.1942 11.1717 14.8287 10.8276C14.4643 10.4826 14.0326 10.2075 13.5574 10.0176C13.5532 10.0156 13.5489 10.0146 13.5447 10.0126C14.2074 9.5603 14.6383 8.82362 14.6383 7.99246C14.6383 6.61558 13.4574 5.5 12 5.5C10.5426 5.5 9.36172 6.61558 9.36172 7.99246C9.36172 8.82362 9.79257 9.5603 10.4553 10.0136C10.4511 10.0156 10.4468 10.0166 10.4426 10.0186C9.96597 10.2085 9.53831 10.4809 9.1713 10.8286C8.8061 11.1729 8.51492 11.5808 8.31385 12.0296C8.11633 12.4691 8.00979 12.9402 8.00003 13.4176C7.99974 13.4283 8.00173 13.439 8.00588 13.449C8.01003 13.459 8.01626 13.4681 8.02419 13.4757C8.03212 13.4834 8.0416 13.4895 8.05206 13.4937C8.06253 13.4979 8.07377 13.5 8.08513 13.5H8.72343C8.77023 13.5 8.80747 13.4648 8.80853 13.4216C8.82981 12.6457 9.15959 11.9191 9.74257 11.3683C10.3458 10.7985 11.1468 10.4849 12 10.4849C12.8532 10.4849 13.6542 10.7985 14.2574 11.3683C14.8404 11.9191 15.1702 12.6457 15.1915 13.4216C15.1925 13.4658 15.2298 13.5 15.2766 13.5H15.9149C15.9262 13.5 15.9375 13.4979 15.9479 13.4937C15.9584 13.4895 15.9679 13.4834 15.9758 13.4757C15.9837 13.4681 15.99 13.459 15.9941 13.449C15.9983 13.439 16.0003 13.4283 16 13.4176C15.9893 12.9372 15.884 12.4698 15.6861 12.0286ZM12 9.72111C11.5117 9.72111 11.0521 9.54121 10.7064 9.21457C10.3606 8.88794 10.1702 8.45377 10.1702 7.99246C10.1702 7.53116 10.3606 7.09698 10.7064 6.77035C11.0521 6.44372 11.5117 6.26382 12 6.26382C12.4883 6.26382 12.9479 6.44372 13.2936 6.77035C13.6394 7.09698 13.8298 7.53116 13.8298 7.99246C13.8298 8.45377 13.6394 8.88794 13.2936 9.21457C12.9479 9.54121 12.4883 9.72111 12 9.72111Z" fill="#525252"/>
<path fill-rule="evenodd" clip-rule="evenodd" d="M17 3C17.7652 2.99996 18.5015 3.29233 19.0583 3.81728C19.615 4.34224 19.9501 5.06011 19.995 5.824L20 6V10.35L20.594 10.086C21.208 9.813 21.916 10.236 21.994 10.884L22 11V19C22.0002 19.5046 21.8096 19.9906 21.4665 20.3605C21.1234 20.7305 20.6532 20.9572 20.15 20.995L20 21H4C3.49542 21.0002 3.00943 20.8096 2.63945 20.4665C2.26947 20.1234 2.04284 19.6532 2.005 19.15L2 19V11C2 10.328 2.675 9.853 3.297 10.045L3.407 10.086L4 10.35V6C3.99996 5.23479 4.29233 4.49849 4.81728 3.94174C5.34224 3.38499 6.06011 3.04989 6.824 3.005L7 3H17ZM20 12.539L12.812 15.733C12.5564 15.8466 12.2797 15.9053 12 15.9053C11.7203 15.9053 11.4436 15.8466 11.188 15.733L4 12.54V19H20V12.539ZM17 5H7C6.73478 5 6.48043 5.10536 6.29289 5.29289C6.10536 5.48043 6 5.73478 6 6V11.239L12 13.906L18 11.239V6C18 5.73478 17.8946 5.48043 17.7071 5.29289C17.5196 5.10536 17.2652 5 17 5Z" fill="#525252" stroke="white" stroke-width="0.8"/>
</g>
<defs>
<clipPath id="clip0_5174_2504">
<rect width="24" height="24" fill="white"/>
</clipPath>
</defs>
</svg>
