<svg width="24" height="24" viewBox="0 0 24 24" fill="none" xmlns="http://www.w3.org/2000/svg">
<path fill-rule="evenodd" clip-rule="evenodd" d="M18.4169 8.53935C18.5392 8.43755 18.6968 8.38845 18.8552 8.40286C19.0136 8.41726 19.1599 8.49398 19.2617 8.61615L21.7613 11.6161C21.8587 11.7389 21.9042 11.8948 21.8882 12.0506C21.8721 12.2064 21.7958 12.3497 21.6754 12.45C21.5551 12.5503 21.4003 12.5995 21.2442 12.5872C21.088 12.5749 20.9429 12.502 20.8397 12.3841L18.3401 9.38415C18.2383 9.26192 18.1892 9.10427 18.2036 8.94585C18.218 8.78743 18.2948 8.64122 18.4169 8.53935Z" fill="#3D4045"/>
<path fill-rule="evenodd" clip-rule="evenodd" d="M18.4169 15.4605C18.2948 15.3587 18.218 15.2124 18.2036 15.054C18.1892 14.8956 18.2383 14.738 18.3401 14.6157L20.8397 11.6157C20.8895 11.5531 20.9512 11.501 21.0214 11.4625C21.0915 11.4241 21.1687 11.4 21.2483 11.3918C21.3278 11.3836 21.4083 11.3914 21.4848 11.4148C21.5613 11.4381 21.6324 11.4765 21.6939 11.5277C21.7553 11.579 21.8059 11.642 21.8427 11.713C21.8794 11.7841 21.9016 11.8618 21.9079 11.9415C21.9142 12.0213 21.9045 12.1015 21.8793 12.1774C21.8541 12.2534 21.814 12.3235 21.7613 12.3837L19.2617 15.3837C19.1599 15.5059 19.0136 15.5826 18.8552 15.597C18.6968 15.6114 18.5392 15.5623 18.4169 15.4605Z" fill="#3D4045"/>
<path fill-rule="evenodd" clip-rule="evenodd" d="M21.0002 12C21.0002 12.1591 20.937 12.3117 20.8245 12.4243C20.7119 12.5368 20.5593 12.6 20.4002 12.6H11.4002C11.2411 12.6 11.0885 12.5368 10.9759 12.4243C10.8634 12.3117 10.8002 12.1591 10.8002 12C10.8002 11.8409 10.8634 11.6883 10.9759 11.5757C11.0885 11.4632 11.2411 11.4 11.4002 11.4H20.4002C20.5593 11.4 20.7119 11.4632 20.8245 11.5757C20.937 11.6883 21.0002 11.8409 21.0002 12ZM4.2002 3.6C4.2002 3.44087 4.26341 3.28826 4.37593 3.17574C4.48845 3.06321 4.64107 3 4.8002 3H15.6002C15.7593 3 15.9119 3.06321 16.0245 3.17574C16.137 3.28826 16.2002 3.44087 16.2002 3.6C16.2002 3.75913 16.137 3.91174 16.0245 4.02426C15.9119 4.13679 15.7593 4.2 15.6002 4.2H4.8002C4.64107 4.2 4.48845 4.13679 4.37593 4.02426C4.26341 3.91174 4.2002 3.75913 4.2002 3.6ZM4.2002 20.4C4.2002 20.2409 4.26341 20.0883 4.37593 19.9757C4.48845 19.8632 4.64107 19.8 4.8002 19.8H15.6002C15.7593 19.8 15.9119 19.8632 16.0245 19.9757C16.137 20.0883 16.2002 20.2409 16.2002 20.4C16.2002 20.5591 16.137 20.7117 16.0245 20.8243C15.9119 20.9368 15.7593 21 15.6002 21H4.8002C4.64107 21 4.48845 20.9368 4.37593 20.8243C4.26341 20.7117 4.2002 20.5591 4.2002 20.4Z" fill="#3D4045"/>
<path fill-rule="evenodd" clip-rule="evenodd" d="M15.6002 3C15.7593 3 15.9119 3.06321 16.0245 3.17574C16.137 3.28826 16.2002 3.44087 16.2002 3.6V8.4C16.2002 8.55913 16.137 8.71174 16.0245 8.82426C15.9119 8.93679 15.7593 9 15.6002 9C15.4411 9 15.2885 8.93679 15.1759 8.82426C15.0634 8.71174 15.0002 8.55913 15.0002 8.4V3.6C15.0002 3.44087 15.0634 3.28826 15.1759 3.17574C15.2885 3.06321 15.4411 3 15.6002 3ZM15.6002 15C15.7593 15 15.9119 15.0632 16.0245 15.1757C16.137 15.2883 16.2002 15.4409 16.2002 15.6V20.4C16.2002 20.5591 16.137 20.7117 16.0245 20.8243C15.9119 20.9368 15.7593 21 15.6002 21C15.4411 21 15.2885 20.9368 15.1759 20.8243C15.0634 20.7117 15.0002 20.5591 15.0002 20.4V15.6C15.0002 15.4409 15.0634 15.2883 15.1759 15.1757C15.2885 15.0632 15.4411 15 15.6002 15ZM4.8002 3C4.95933 3 5.11194 3.06321 5.22446 3.17574C5.33698 3.28826 5.4002 3.44087 5.4002 3.6V20.4C5.4002 20.5591 5.33698 20.7117 5.22446 20.8243C5.11194 20.9368 4.95933 21 4.8002 21C4.64107 21 4.48845 20.9368 4.37593 20.8243C4.26341 20.7117 4.2002 20.5591 4.2002 20.4V3.6C4.2002 3.44087 4.26341 3.28826 4.37593 3.17574C4.48845 3.06321 4.64107 3 4.8002 3Z" fill="#3D4045"/>
</svg>
