<svg width="186" height="30" viewBox="0 0 186 30" fill="none" xmlns="http://www.w3.org/2000/svg">
<g clip-path="url(#clip0_4440_15869)">
<path d="M46.9518 14.0027H51.0802V19.9385C49.3684 21.1013 47.0122 21.7232 44.938 21.7232C40.3867 21.7232 37.0637 18.6952 37.0637 14.3836C37.0637 10.0723 40.3867 7.04405 45.0386 7.04405C47.8178 7.04405 50.0531 8.00679 51.4829 9.75146L48.4421 12.4186C47.556 11.3957 46.5288 10.8743 45.2803 10.8743C43.1859 10.8743 41.8569 12.2179 41.8569 14.3836C41.8569 16.4892 43.1859 17.893 45.2199 17.893C45.8039 17.893 46.3678 17.7928 46.9518 17.5521V14.0027Z" fill="#5A00E3"/>
<path d="M52.912 7.36507H57.6646V17.7327H64.0285V21.4023H52.912V7.36507Z" fill="#5A00E3"/>
<path d="M75.4866 14.3837C75.4866 12.198 74.0768 10.8743 72.3248 10.8743C70.5727 10.8743 69.163 12.198 69.163 14.3837C69.163 16.5694 70.5727 17.8931 72.3248 17.8931C74.0768 17.8931 75.4866 16.5694 75.4866 14.3837ZM64.37 14.3837C64.37 10.1325 67.7331 7.04413 72.3248 7.04413C76.9162 7.04413 80.2795 10.1325 80.2795 14.3837C80.2795 18.6352 76.9162 21.7233 72.3248 21.7233C67.7331 21.7233 64.37 18.6352 64.37 14.3837Z" fill="#5A00E3"/>
<path d="M90.9115 16.9907C90.9115 16.2686 90.3878 15.8877 89.3405 15.8877H86.481V18.0937H89.3405C90.3878 18.0937 90.9115 17.7127 90.9115 16.9907ZM86.481 10.674V12.7595H88.6963C89.7633 12.7595 90.2467 12.3986 90.2467 11.7166C90.2467 11.0349 89.7633 10.674 88.6963 10.674H86.481ZM95.7044 17.5322C95.7044 19.9784 93.6299 21.4022 89.7432 21.4022H81.8088V7.36495H89.3405C93.2272 7.36495 95.0396 8.90925 95.0396 11.0349C95.0396 12.3382 94.3751 13.4212 93.0863 14.0629C94.7375 14.6645 95.7044 15.8676 95.7044 17.5322Z" fill="#5A00E3"/>
<path d="M105.471 15.5468L104.101 12.0174L102.732 15.5468H105.471ZM106.78 18.9558H101.423L100.476 21.4022H95.6432L101.806 7.36495H106.478L112.64 21.4022H107.726L106.78 18.9558Z" fill="#5A00E3"/>
<path d="M113.203 7.36507H117.956V17.7327H124.32V21.4023H113.203V7.36507Z" fill="#5A00E3"/>
<path d="M139.684 12.6592C139.684 11.6363 139.06 11.0147 137.75 11.0147H136.019V14.3037H137.75C139.06 14.3037 139.684 13.6818 139.684 12.6592ZM144.477 12.6592C144.477 15.9078 141.98 17.9533 138.053 17.9533H136.019V21.4023H131.266V7.36507H138.053C141.98 7.36507 144.477 9.41054 144.477 12.6592Z" fill="#5A00E3"/>
<path d="M153.417 15.5468L152.048 12.0174L150.679 15.5468H153.417ZM154.726 18.9558H149.369L148.423 21.4022H143.59L149.752 7.36495H154.424L160.587 21.4022H155.673L154.726 18.9558Z" fill="#5A00E3"/>
<path d="M160.263 20.2793L161.794 16.8303C163.123 17.6125 164.895 18.1137 166.446 18.1137C167.795 18.1137 168.279 17.8329 168.279 17.3518C168.279 15.5871 160.485 17.0107 160.485 11.7769C160.485 9.1699 162.68 7.04405 167.05 7.04405C168.944 7.04405 170.897 7.44527 172.367 8.26751L170.937 11.6965C169.547 10.9947 168.239 10.6538 167.01 10.6538C165.621 10.6538 165.178 11.0548 165.178 11.5362C165.178 13.2208 172.971 11.817 172.971 16.9906C172.971 19.5573 170.776 21.7232 166.406 21.7232C164.05 21.7232 161.673 21.1417 160.263 20.2793Z" fill="#5A00E3"/>
<path d="M173.293 20.2793L174.823 16.8303C176.152 17.6125 177.925 18.1137 179.475 18.1137C180.824 18.1137 181.308 17.8329 181.308 17.3518C181.308 15.5871 173.514 17.0107 173.514 11.7769C173.514 9.1699 175.709 7.04405 180.079 7.04405C181.972 7.04405 183.926 7.44527 185.396 8.26751L183.966 11.6965C182.577 10.9947 181.268 10.6538 180.039 10.6538C178.65 10.6538 178.206 11.0548 178.206 11.5362C178.206 13.2208 186 11.817 186 16.9906C186 19.5573 183.805 21.7232 179.435 21.7232C177.078 21.7232 174.702 21.1417 173.293 20.2793Z" fill="#5A00E3"/>
<path d="M9.08477 28.1994C4.31057 25.7324 1.03891 20.7662 1.03891 15.0503C1.03891 9.15958 4.51203 4.06253 9.52581 1.67973C9.39205 1.44352 9.326 1.16795 9.32719 0.892615C3.96517 3.37419 0.236617 8.78523 0.236617 15.0503C0.236617 21.1797 3.80514 26.4924 8.98037 29.0435C8.9361 28.7583 8.97327 28.4636 9.08477 28.1994Z" fill="#5A00E3"/>
<path d="M22.6444 0.962041C22.6676 1.24987 22.6174 1.537 22.4959 1.78051C27.3989 4.20386 30.7783 9.24032 30.7783 15.0505C30.7783 20.7602 27.5138 25.7221 22.7476 28.1917C22.9031 28.4135 22.9921 28.6799 23.0146 28.9529C28.0933 26.3683 31.5808 21.1091 31.5808 15.0505C31.5808 8.84499 27.924 3.4752 22.6444 0.962041Z" fill="#5A00E3"/>
<path d="M8.72634 0.47148C8.09568 0.47148 7.58268 0.982315 7.58268 1.61055C7.58268 2.23854 8.09568 2.74938 8.72634 2.74938C9.35699 2.74938 9.87023 2.23854 9.87023 1.61055C9.87023 0.982315 9.35699 0.47148 8.72634 0.47148ZM8.72634 3.22085C7.83456 3.22085 7.10921 2.49856 7.10921 1.61055C7.10921 0.722301 7.83456 1.13139e-05 8.72634 1.13139e-05C9.61811 1.13139e-05 10.3437 0.722301 10.3437 1.61055C10.3437 2.49856 9.61811 3.22085 8.72634 3.22085Z" fill="#5A00E3"/>
<path d="M24.4716 1.61045C24.4716 2.36975 23.8535 2.98502 23.0912 2.98502C22.3287 2.98502 21.7105 2.36975 21.7105 1.61045C21.7105 0.851152 22.3287 0.235886 23.0912 0.235886C23.8535 0.235886 24.4716 0.851152 24.4716 1.61045Z" fill="#5A00E3"/>
<path d="M10.1068 28.3897C10.1068 29.149 9.48874 29.7643 8.72646 29.7643C7.96394 29.7643 7.34582 29.149 7.34582 28.3897C7.34582 27.6304 7.96394 27.0152 8.72646 27.0152C9.48874 27.0152 10.1068 27.6304 10.1068 28.3897Z" fill="#5A00E3"/>
<path d="M24.4716 28.3897C24.4716 29.149 23.8535 29.7643 23.0912 29.7643C22.3287 29.7643 21.7105 29.149 21.7105 28.3897C21.7105 27.6304 22.3287 27.0152 23.0912 27.0152C23.8535 27.0152 24.4716 27.6304 24.4716 28.3897Z" fill="#5A00E3"/>
<path d="M17.2892 1.61045C17.2892 2.36975 16.6711 2.98502 15.9088 2.98502C15.1463 2.98502 14.5282 2.36975 14.5282 1.61045C14.5282 0.851152 15.1463 0.235886 15.9088 0.235886C16.6711 0.235886 17.2892 0.851152 17.2892 1.61045Z" fill="#5A00E3"/>
<path d="M9.33768 6.20741C9.33768 5.44811 9.95579 4.83284 10.7181 4.83284C11.4806 4.83284 12.0987 5.44811 12.0987 6.20741C12.0987 6.96671 11.4806 7.58198 10.7181 7.58198C9.95579 7.58198 9.33768 6.96671 9.33768 6.20741Z" fill="#5A00E3"/>
<path d="M9.12277 1.25106C3.8571 3.82929 0.473467 9.2085 0.473467 15.0505C0.473467 20.8012 3.62771 25.977 8.73192 28.6523C8.74163 28.5378 8.7627 28.4244 8.79418 28.3133C3.85947 25.68 0.802527 20.6169 0.802527 15.0505C0.802527 9.3655 4.09573 4.09991 9.21273 1.5693C9.17343 1.46723 9.14336 1.36068 9.12277 1.25106ZM9.28398 29.4562L8.87538 29.2549C3.40092 26.5562 0 21.1133 0 15.0505C0 8.91431 3.62203 3.27319 9.22741 0.678699L9.56522 0.522407L9.5638 0.893454C9.56286 1.13626 9.62109 1.36799 9.73212 1.56388L9.85664 1.78382L9.62772 1.89249C4.55428 4.30382 1.27599 9.46852 1.27599 15.0505C1.27599 20.5082 4.30974 25.4666 9.19379 27.9902L9.38767 28.0903L9.30316 28.2907C9.20752 28.5173 9.17674 28.7652 9.21438 29.0076L9.28398 29.4562Z" fill="#5A00E3"/>
<path d="M23.0759 28.2852C23.1235 28.3833 23.1624 28.4867 23.1915 28.5945C28.2287 25.9017 31.3441 20.7412 31.3441 15.0504C31.3441 9.28809 28.031 3.94541 22.8721 1.33654C22.8577 1.45064 22.8328 1.56167 22.7975 1.66798C27.8726 4.26507 31.0153 9.37248 31.0153 15.0504C31.0153 20.5958 27.9796 25.644 23.0759 28.2852ZM22.8073 29.3229L22.7786 28.9719C22.759 28.7317 22.6813 28.5084 22.5535 28.3269L22.3991 28.1065L22.6385 27.9827C27.5133 25.4566 30.5418 20.501 30.5418 15.0504C30.5418 9.48045 27.4184 4.47652 22.3908 1.99165L22.1787 1.88698L22.2841 1.67576C22.3842 1.47468 22.4285 1.2281 22.4086 0.980817L22.3755 0.572762L22.7464 0.749327C28.2569 3.37211 31.8176 8.98564 31.8176 15.0504C31.8176 21.0258 28.4858 26.4335 23.1223 29.1628L22.8073 29.3229Z" fill="#5A00E3"/>
<path d="M10.1069 1.61044C10.1069 2.36974 9.48881 2.98501 8.72652 2.98501C7.964 2.98501 7.34589 2.36974 7.34589 1.61044C7.34589 0.851141 7.964 0.235875 8.72652 0.235875C9.48881 0.235875 10.1069 0.851141 10.1069 1.61044Z" fill="#5A00E3"/>
<path d="M23.0911 0.471468C22.4604 0.471468 21.9474 0.982304 21.9474 1.61054C21.9474 2.23853 22.4604 2.74937 23.0911 2.74937C23.7218 2.74937 24.235 2.23853 24.235 1.61054C24.235 0.982304 23.7218 0.471468 23.0911 0.471468ZM23.0911 3.22084C22.1993 3.22084 21.474 2.49855 21.474 1.61054C21.474 0.72229 22.1993 0 23.0911 0C23.9829 0 24.7085 0.72229 24.7085 1.61054C24.7085 2.49855 23.9829 3.22084 23.0911 3.22084Z" fill="#5A00E3"/>
<path d="M8.7264 27.2509C8.09575 27.2509 7.58274 27.7617 7.58274 28.3897C7.58274 29.0177 8.09575 29.5285 8.7264 29.5285C9.35706 29.5285 9.8703 29.0177 9.8703 28.3897C9.8703 27.7617 9.35706 27.2509 8.7264 27.2509ZM8.7264 30C7.83463 30 7.10928 29.2777 7.10928 28.3897C7.10928 27.5017 7.83463 26.7794 8.7264 26.7794C9.61818 26.7794 10.3438 27.5017 10.3438 28.3897C10.3438 29.2777 9.61818 30 8.7264 30Z" fill="#5A00E3"/>
<path d="M23.0911 27.2509C22.4604 27.2509 21.9474 27.7617 21.9474 28.3897C21.9474 29.0177 22.4604 29.5285 23.0911 29.5285C23.7218 29.5285 24.235 29.0177 24.235 28.3897C24.235 27.7617 23.7218 27.2509 23.0911 27.2509ZM23.0911 30C22.1993 30 21.474 29.2777 21.474 28.3897C21.474 27.5017 22.1993 26.7794 23.0911 26.7794C23.9829 26.7794 24.7085 27.5017 24.7085 28.3897C24.7085 29.2777 23.9829 30 23.0911 30Z" fill="#5A00E3"/>
<path d="M11.7889 11.5238L11.154 10.6971L15.3863 7.47626V1.61025H16.4315V7.99039L11.7889 11.5238Z" fill="#5A00E3"/>
<path d="M12.852 11.1105C12.852 11.8698 12.2339 12.485 11.4716 12.485C10.7091 12.485 10.091 11.8698 10.091 11.1105C10.091 10.3512 10.7091 9.73589 11.4716 9.73589C12.2339 9.73589 12.852 10.3512 12.852 11.1105Z" fill="#5A00E3"/>
<path d="M21.6841 24.573L21.0492 23.7463L25.2815 20.5254V14.6594H26.3267V21.0396L21.6841 24.573Z" fill="#5A00E3"/>
<path d="M27.1845 14.6596C27.1845 15.4189 26.5664 16.0342 25.8041 16.0342C25.0416 16.0342 24.4235 15.4189 24.4235 14.6596C24.4235 13.9003 25.0416 13.2851 25.8041 13.2851C26.5664 13.2851 27.1845 13.9003 27.1845 14.6596Z" fill="#5A00E3"/>
<path d="M22.7473 24.1596C22.7473 24.9189 22.1292 25.5342 21.3669 25.5342C20.6043 25.5342 19.9862 24.9189 19.9862 24.1596C19.9862 23.4003 20.6043 22.7851 21.3669 22.7851C22.1292 22.7851 22.7473 23.4003 22.7473 24.1596Z" fill="#5A00E3"/>
<path d="M12.3723 26.0664H11.6509V21.8406H12.3723V26.0664Z" fill="#5A00E3"/>
<path d="M12.9644 21.8407C12.9644 22.3647 12.5378 22.7893 12.0118 22.7893C11.4855 22.7893 11.0589 22.3647 11.0589 21.8407C11.0589 21.3167 11.4855 20.8921 12.0118 20.8921C12.5378 20.8921 12.9644 21.3167 12.9644 21.8407Z" fill="#5A00E3"/>
<path d="M12.9644 26.0664C12.9644 26.5904 12.5378 27.015 12.0118 27.015C11.4855 27.015 11.0589 26.5904 11.0589 26.0664C11.0589 25.5423 11.4855 25.1178 12.0118 25.1178C12.5378 25.1178 12.9644 25.5423 12.9644 26.0664Z" fill="#5A00E3"/>
<path d="M20.0713 9.23142H19.35V5.00588H20.0713V9.23142Z" fill="#5A00E3"/>
<path d="M20.6634 5.00574C20.6634 5.52978 20.2368 5.95434 19.7108 5.95434C19.1845 5.95434 18.7579 5.52978 18.7579 5.00574C18.7579 4.4817 19.1845 4.05715 19.7108 4.05715C20.2368 4.05715 20.6634 4.4817 20.6634 5.00574Z" fill="#5A00E3"/>
<path d="M20.6634 9.2314C20.6634 9.75543 20.2368 10.18 19.7108 10.18C19.1845 10.18 18.7579 9.75543 18.7579 9.2314C18.7579 8.70736 19.1845 8.2828 19.7108 8.2828C20.2368 8.2828 20.6634 8.70736 20.6634 9.2314Z" fill="#5A00E3"/>
<path d="M6.47147 22.0442L5.89976 21.435L11.8259 15.9191L12.3976 16.5282L6.47147 22.0442Z" fill="#5A00E3"/>
<path d="M12.867 17.0282C12.4208 17.4435 11.721 17.42 11.3039 16.9756C10.8867 16.5312 10.9104 15.8344 11.3567 15.419C11.8029 15.0039 12.5027 15.0273 12.9198 15.4716C13.3369 15.916 13.3133 16.6128 12.867 17.0282Z" fill="#5A00E3"/>
<path d="M6.50535 22.9495C6.0591 23.3648 5.35932 23.3413 4.94219 22.8969C4.52507 22.4525 4.54874 21.7557 4.99498 21.3404C5.44123 20.9252 6.14101 20.9486 6.55814 21.3929C6.97526 21.8373 6.95159 22.5341 6.50535 22.9495Z" fill="#5A00E3"/>
<path d="M20.3783 14.3212L19.8066 13.7121L25.7327 8.19612L26.3044 8.80526L20.3783 14.3212Z" fill="#5A00E3"/>
<path d="M26.7738 9.30518C26.3276 9.72054 25.6278 9.69697 25.2107 9.25261C24.7936 8.80825 24.8172 8.11142 25.2635 7.69606C25.7097 7.28093 26.4095 7.30427 26.8266 7.74863C27.2438 8.19299 27.2201 8.88982 26.7738 9.30518Z" fill="#5A00E3"/>
<path d="M20.4122 15.2265C19.9659 15.6419 19.2661 15.6183 18.849 15.1739C18.4319 14.7296 18.4556 14.0327 18.9018 13.6174C19.3481 13.2022 20.0478 13.2256 20.465 13.6699C20.8821 14.1143 20.8584 14.8111 20.4122 15.2265Z" fill="#5A00E3"/>
<path d="M16.4315 28.4905H15.3861V22.1098L20.0285 18.5769L20.6634 19.4036L16.4315 22.6242V28.4905Z" fill="#5A00E3"/>
<path d="M14.5283 28.4903C14.5283 27.731 15.1464 27.1157 15.9087 27.1157C16.6712 27.1157 17.2893 27.731 17.2893 28.4903C17.2893 29.2496 16.6712 29.8649 15.9087 29.8649C15.1464 29.8649 14.5283 29.2496 14.5283 28.4903Z" fill="#5A00E3"/>
<path d="M18.9655 18.9903C18.9655 18.231 19.5836 17.6157 20.3459 17.6157C21.1084 17.6157 21.7266 18.231 21.7266 18.9903C21.7266 19.7496 21.1084 20.3648 20.3459 20.3648C19.5836 20.3648 18.9655 19.7496 18.9655 18.9903Z" fill="#5A00E3"/>
<path d="M6.8037 15.7076H5.75829V9.32696L10.4006 5.79401L11.0356 6.62073L6.8037 9.84133V15.7076Z" fill="#5A00E3"/>
<path d="M4.9005 15.7074C4.9005 14.9481 5.51862 14.3328 6.2809 14.3328C7.04342 14.3328 7.66153 14.9481 7.66153 15.7074C7.66153 16.4667 7.04342 17.082 6.2809 17.082C5.51862 17.082 4.9005 16.4667 4.9005 15.7074Z" fill="#5A00E3"/>
<path d="M17.6764 12.7108C17.6764 11.7386 16.885 10.9506 15.9087 10.9506C14.9326 10.9506 14.1412 11.7386 14.1412 12.7108C14.1412 13.3046 14.4374 13.8284 14.8895 14.1473L14.2274 18.3114H17.5902L16.928 14.1473C17.3802 13.8284 17.6764 13.3046 17.6764 12.7108Z" fill="#5A00E3"/>
</g>
<defs>
<clipPath id="clip0_4440_15869">
<rect width="186" height="30" fill="white"/>
</clipPath>
</defs>
</svg>
