<svg width="24" height="24" viewBox="0 0 24 24" fill="none" xmlns="http://www.w3.org/2000/svg">
<path d="M18.1997 1.28516C18.7089 1.28516 19.1126 1.4493 19.4109 1.77801C19.6877 2.0823 19.836 2.48858 19.8558 2.99558L19.8583 3.1143V20.8846C19.8583 21.4404 19.7092 21.8844 19.4109 22.2162C19.134 22.5243 18.7663 22.6893 18.3073 22.7112L18.2002 22.7137H5.52518C5.00918 22.7137 4.60203 22.5479 4.30375 22.2166C4.02732 21.908 3.87861 21.5034 3.85889 21.002L3.85718 20.8846V3.1143C3.85718 2.55158 4.00632 2.10587 4.30461 1.77758C4.58146 1.47287 4.95175 1.30958 5.41675 1.28773L5.52561 1.28516H18.1997ZM17.667 2.90344H6.05832C5.85732 2.90344 5.70989 2.95058 5.61603 3.04401C5.53418 3.1263 5.48746 3.2493 5.47761 3.41344L5.47546 3.4863V20.5126C5.47546 20.7136 5.52261 20.861 5.61603 20.9549C5.69832 21.0367 5.82132 21.0834 5.98546 21.0933L6.05832 21.0954H8.35975V18.1306C8.35975 17.7312 8.44289 17.429 8.60918 17.2242L8.65632 17.1706C8.83761 16.9833 9.10761 16.8817 9.46632 16.8663L9.56618 16.8642H14.1493C14.565 16.8642 14.8693 16.9662 15.0639 17.1706C15.2422 17.3579 15.3382 17.6424 15.3532 18.0239L15.3553 18.1306V21.0954H17.667C17.8616 21.0954 18.0056 21.0483 18.0995 20.9549C18.1813 20.8726 18.2276 20.7496 18.2379 20.5854L18.24 20.5126V3.4863C18.24 3.2853 18.1929 3.13787 18.0995 3.04401C18.0052 2.95016 17.8616 2.90344 17.667 2.90344ZM13.7173 18.1807H9.99818C9.80189 18.1807 9.69518 18.2707 9.67889 18.4507L9.67675 18.5022L9.67632 21.0954H14.0387V18.5026C14.0387 18.3054 13.9487 18.1996 13.7687 18.1829L13.7173 18.1807ZM10.4807 12.5322C10.7357 12.5322 10.8725 12.6504 10.8909 12.8879L10.893 12.9444V14.8439C10.893 15.0989 10.7743 15.2356 10.5373 15.254L10.4807 15.2557H8.52089C8.27832 15.2557 8.14804 15.1374 8.13089 14.9004L8.12875 14.8439V12.9444C8.12875 12.689 8.24146 12.5523 8.46689 12.5343L8.52089 12.5322H10.4807ZM15.1847 12.5322C15.4397 12.5322 15.5765 12.6504 15.5945 12.8879L15.5966 12.9444V14.8439C15.5966 15.0989 15.4783 15.2356 15.2413 15.254L15.1847 15.2557H13.2347C12.9862 15.2557 12.8525 15.1374 12.8349 14.9004L12.8327 14.8439V12.9444C12.8327 12.689 12.9485 12.5523 13.1795 12.5343L13.2347 12.5322H15.1847ZM10.4807 8.55201C10.7357 8.55201 10.8725 8.6703 10.8909 8.9073L10.893 8.96387V10.8637C10.893 11.1187 10.7743 11.2554 10.5373 11.2739L10.4807 11.2756H8.52089C8.27832 11.2756 8.14804 11.1573 8.13089 10.9203L8.12875 10.8637V8.96387C8.12875 8.70887 8.24146 8.57216 8.46689 8.55416L8.52089 8.55201H10.4807ZM15.1847 8.55201C15.4397 8.55201 15.5765 8.6703 15.5945 8.9073L15.5966 8.96387V10.8637C15.5966 11.1187 15.4783 11.2554 15.2413 11.2739L15.1847 11.2756H13.2347C12.9862 11.2756 12.8525 11.1573 12.8349 10.9203L12.8327 10.8637V8.96387C12.8327 8.70887 12.9485 8.57216 13.1795 8.55416L13.2347 8.55201H15.1847ZM10.4807 4.57187C10.7357 4.57187 10.8725 4.69016 10.8909 4.92716L10.893 4.98373V6.88358C10.893 7.13858 10.7743 7.2753 10.5373 7.29373L10.4807 7.29544H8.52089C8.27832 7.29544 8.14804 7.17716 8.13089 6.94016L8.12875 6.88358V4.98373C8.12875 4.72873 8.24146 4.59201 8.46689 4.57401L8.52089 4.57187H10.4807ZM15.1847 4.57187C15.4397 4.57187 15.5765 4.69016 15.5945 4.92716L15.5966 4.98373V6.88358C15.5966 7.13858 15.4783 7.2753 15.2413 7.29373L15.1847 7.29544H13.2347C12.9862 7.29544 12.8525 7.17716 12.8349 6.94016L12.8327 6.88358V4.98373C12.8327 4.72873 12.9485 4.59201 13.1795 4.57401L13.2347 4.57187H15.1847Z" fill="#4379C1"/>
</svg>
