
<svg width="36" height="36" viewBox="0 0 36 36" fill="none" xmlns="http://www.w3.org/2000/svg">
<g clip-path="url(#clip0_4537_1552)">
<mask id="mask0_4537_1552" style="mask-type:luminance" maskUnits="userSpaceOnUse" x="0" y="0" width="36" height="36">
<path d="M0.5 0.5H35.5V35.5H0.5V0.5Z" fill="white"/>
</mask>
<g mask="url(#mask0_4537_1552)">
<path d="M10.96 31.9023C6.10886 29.3936 2.78446 24.3432 2.78446 18.5306C2.78446 12.5401 6.31357 7.35673 11.4082 4.93358C11.2723 4.69338 11.2051 4.41314 11.2064 4.13314C5.7579 6.65673 1.96924 12.1594 1.96924 18.5306C1.96924 24.7637 5.59529 30.1664 10.8539 32.7607C10.809 32.4707 10.8467 32.171 10.96 31.9023Z" fill="#ffffff"/>
<path d="M10.9983 4.49768C5.64779 7.11956 2.20962 12.5899 2.20962 18.5308C2.20962 24.3789 5.4147 29.6423 10.6012 32.363C10.6111 32.2464 10.6325 32.1311 10.6645 32.0182C5.6502 29.3402 2.54398 24.1914 2.54398 18.5308C2.54398 12.7495 5.89027 7.39477 11.0898 4.82131C11.0498 4.7175 11.0193 4.60915 10.9983 4.49768ZM11.1622 33.1804L10.747 32.9757C5.18425 30.2313 1.72852 24.6963 1.72852 18.5308C1.72852 12.2907 5.40893 6.55405 11.1047 3.91562L11.4479 3.75668L11.4465 4.13401C11.4455 4.38093 11.5047 4.61658 11.6175 4.81579L11.744 5.03946L11.5114 5.14997C6.35621 7.60213 3.02508 12.8543 3.02508 18.5308C3.02508 24.0809 6.10772 29.1233 11.0705 31.6896L11.2675 31.7914L11.1816 31.9952C11.0845 32.2256 11.0532 32.4778 11.0914 32.7242L11.1622 33.1804Z" fill="#ffffff"/>
<path d="M24.7382 4.20375C24.7618 4.49645 24.7108 4.78844 24.5874 5.03608C29.5694 7.50046 33.0033 12.6222 33.0033 18.5307C33.0033 24.3371 29.6861 29.3831 24.8431 31.8945C25.0011 32.1201 25.0916 32.391 25.1144 32.6686C30.275 30.0402 33.8187 24.6919 33.8187 18.5307C33.8187 12.2202 30.103 6.75947 24.7382 4.20375Z" fill="#ffffff"/>
<path d="M25.1763 31.9895C25.2247 32.0893 25.2641 32.1945 25.2937 32.304C30.4121 29.5657 33.5778 24.3178 33.5778 18.5306C33.5778 12.6707 30.2113 7.23757 24.9692 4.58453C24.9545 4.70055 24.9293 4.81346 24.8934 4.92158C30.0504 7.56264 33.2437 12.7565 33.2437 18.5306C33.2437 24.1699 30.1591 29.3036 25.1763 31.9895ZM24.9033 33.0448L24.8742 32.6878C24.8542 32.4436 24.7753 32.2165 24.6454 32.032L24.4886 31.8078L24.7318 31.682C29.6852 29.1131 32.7626 24.0735 32.7626 18.5306C32.7626 12.8663 29.5887 7.77768 24.4802 5.25072L24.2646 5.14429L24.3717 4.92949C24.4734 4.72501 24.5184 4.47425 24.4982 4.22278L24.4645 3.80781L24.8415 3.98737C30.4408 6.65456 34.0589 12.3632 34.0589 18.5306C34.0589 24.6072 30.6734 30.1065 25.2235 32.882L24.9033 33.0448Z" fill="#ffffff"/>
<path d="M11.9984 4.86314C11.9984 5.6353 11.3703 6.26099 10.5958 6.26099C9.82095 6.26099 9.19287 5.6353 9.19287 4.86314C9.19287 4.09099 9.82095 3.4653 10.5958 3.4653C11.3703 3.4653 11.9984 4.09099 11.9984 4.86314Z" fill="#ffffff"/>
<path d="M10.5958 3.70481C9.95501 3.70481 9.43374 4.22429 9.43374 4.86316C9.43374 5.50179 9.95501 6.02128 10.5958 6.02128C11.2367 6.02128 11.7582 5.50179 11.7582 4.86316C11.7582 4.22429 11.2367 3.70481 10.5958 3.70481ZM10.5958 6.50073C9.68968 6.50073 8.95264 5.76621 8.95264 4.86316C8.95264 3.95988 9.68968 3.22536 10.5958 3.22536C11.502 3.22536 12.2393 3.95988 12.2393 4.86316C12.2393 5.76621 11.502 6.50073 10.5958 6.50073Z" fill="#ffffff"/>
<path d="M26.5946 4.86314C26.5946 5.6353 25.9665 6.26099 25.1919 6.26099C24.4171 6.26099 23.7891 5.6353 23.7891 4.86314C23.7891 4.09099 24.4171 3.4653 25.1919 3.4653C25.9665 3.4653 26.5946 4.09099 26.5946 4.86314Z" fill="#ffffff"/>
<path d="M25.192 3.70481C24.5512 3.70481 24.0299 4.22429 24.0299 4.86316C24.0299 5.50179 24.5512 6.02128 25.192 6.02128C25.8328 6.02128 26.3544 5.50179 26.3544 4.86316C26.3544 4.22429 25.8328 3.70481 25.192 3.70481ZM25.192 6.50073C24.2859 6.50073 23.5488 5.76621 23.5488 4.86316C23.5488 3.95988 24.2859 3.22536 25.192 3.22536C26.0982 3.22536 26.8355 3.95988 26.8355 4.86316C26.8355 5.76621 26.0982 6.50073 25.192 6.50073Z" fill="#ffffff"/>
<path d="M11.9984 32.0958C11.9984 32.868 11.3703 33.4937 10.5958 33.4937C9.82095 33.4937 9.19287 32.868 9.19287 32.0958C9.19287 31.3237 9.82095 30.698 10.5958 30.698C11.3703 30.698 11.9984 31.3237 11.9984 32.0958Z" fill="#ffffff"/>
<path d="M10.5958 30.9377C9.95501 30.9377 9.43374 31.4572 9.43374 32.0958C9.43374 32.7345 9.95501 33.2539 10.5958 33.2539C11.2367 33.2539 11.7582 32.7345 11.7582 32.0958C11.7582 31.4572 11.2367 30.9377 10.5958 30.9377ZM10.5958 33.7334C9.68968 33.7334 8.95264 32.9989 8.95264 32.0958C8.95264 31.1928 9.68968 30.4583 10.5958 30.4583C11.502 30.4583 12.2393 31.1928 12.2393 32.0958C12.2393 32.9989 11.502 33.7334 10.5958 33.7334Z" fill="#ffffff"/>
<path d="M26.5946 32.0958C26.5946 32.868 25.9665 33.4937 25.1919 33.4937C24.4171 33.4937 23.7891 32.868 23.7891 32.0958C23.7891 31.3237 24.4171 30.698 25.1919 30.698C25.9665 30.698 26.5946 31.3237 26.5946 32.0958Z" fill="#ffffff"/>
<path d="M25.192 30.9377C24.5512 30.9377 24.0299 31.4572 24.0299 32.0958C24.0299 32.7345 24.5512 33.2539 25.192 33.2539C25.8328 33.2539 26.3544 32.7345 26.3544 32.0958C26.3544 31.4572 25.8328 30.9377 25.192 30.9377ZM25.192 33.7334C24.2859 33.7334 23.5488 32.9989 23.5488 32.0958C23.5488 31.1928 24.2859 30.4583 25.192 30.4583C26.0982 30.4583 26.8355 31.1928 26.8355 32.0958C26.8355 32.9989 26.0982 33.7334 25.192 33.7334Z" fill="#ffffff"/>
<path d="M13.7077 14.9443L13.0625 14.1036L17.363 10.8282V4.8629H18.4251V11.3511L13.7077 14.9443Z" fill="#ffffff"/>
<path d="M19.2963 4.86314C19.2963 5.6353 18.6682 6.26099 17.8936 6.26099C17.1188 6.26099 16.4907 5.6353 16.4907 4.86314C16.4907 4.09099 17.1188 3.4653 17.8936 3.4653C18.6682 3.4653 19.2963 4.09099 19.2963 4.86314Z" fill="#ffffff"/>
<path d="M14.7875 14.524C14.7875 15.2962 14.1594 15.9219 13.3848 15.9219C12.61 15.9219 11.9819 15.2962 11.9819 14.524C11.9819 13.7519 12.61 13.1262 13.3848 13.1262C14.1594 13.1262 14.7875 13.7519 14.7875 14.524Z" fill="#ffffff"/>
<path d="M23.7623 28.2145L23.1172 27.3738L27.4177 24.0984V18.133H28.4798V24.6212L23.7623 28.2145Z" fill="#ffffff"/>
<path d="M29.3514 18.1333C29.3514 18.9054 28.7234 19.5311 27.9488 19.5311C27.174 19.5311 26.5459 18.9054 26.5459 18.1333C26.5459 17.3611 27.174 16.7354 27.9488 16.7354C28.7234 16.7354 29.3514 17.3611 29.3514 18.1333Z" fill="#ffffff"/>
<path d="M24.8426 27.7942C24.8426 28.5663 24.2146 29.192 23.44 29.192C22.6652 29.192 22.0371 28.5663 22.0371 27.7942C22.0371 27.022 22.6652 26.3963 23.44 26.3963C24.2146 26.3963 24.8426 27.022 24.8426 27.7942Z" fill="#ffffff"/>
<path d="M14.3003 29.7332H13.5674V25.4358H14.3003V29.7332Z" fill="#ffffff"/>
<path d="M14.902 25.436C14.902 25.9689 14.4685 26.4006 13.934 26.4006C13.3993 26.4006 12.9658 25.9689 12.9658 25.436C12.9658 24.9031 13.3993 24.4713 13.934 24.4713C14.4685 24.4713 14.902 24.9031 14.902 25.436Z" fill="#ffffff"/>
<path d="M14.902 29.7332C14.902 30.2661 14.4685 30.6979 13.934 30.6979C13.3993 30.6979 12.9658 30.2661 12.9658 29.7332C12.9658 29.2003 13.3993 28.7686 13.934 28.7686C14.4685 28.7686 14.902 29.2003 14.902 29.7332Z" fill="#ffffff"/>
<path d="M22.1236 12.6132H21.3906V8.31607H22.1236V12.6132Z" fill="#ffffff"/>
<path d="M22.7252 8.31586C22.7252 8.84877 22.2918 9.28052 21.7573 9.28052C21.2225 9.28052 20.7891 8.84877 20.7891 8.31586C20.7891 7.78295 21.2225 7.3512 21.7573 7.3512C22.2918 7.3512 22.7252 7.78295 22.7252 8.31586Z" fill="#ffffff"/>
<path d="M22.7252 12.6131C22.7252 13.146 22.2918 13.5778 21.7573 13.5778C21.2225 13.5778 20.7891 13.146 20.7891 12.6131C20.7891 12.0802 21.2225 11.6484 21.7573 11.6484C22.2918 11.6484 22.7252 12.0802 22.7252 12.6131Z" fill="#ffffff"/>
<path d="M8.30407 25.6428L7.72314 25.0234L13.7448 19.414L14.3258 20.0335L8.30407 25.6428Z" fill="#ffffff"/>
<path d="M14.8028 20.5419C14.3493 20.9643 13.6383 20.9403 13.2144 20.4884C12.7906 20.0365 12.8146 19.3279 13.2681 18.9055C13.7215 18.4833 14.4326 18.5071 14.8564 18.9589C15.2803 19.4108 15.2562 20.1195 14.8028 20.5419Z" fill="#ffffff"/>
<path d="M8.33891 26.5635C7.88547 26.9859 7.17441 26.9619 6.75056 26.51C6.32671 26.0581 6.35077 25.3495 6.8042 24.9271C7.25764 24.5049 7.9687 24.5287 8.39255 24.9806C8.8164 25.4324 8.79235 26.1411 8.33891 26.5635Z" fill="#ffffff"/>
<path d="M22.4354 17.7891L21.8545 17.1696L27.8762 11.5603L28.4571 12.1797L22.4354 17.7891Z" fill="#ffffff"/>
<path d="M28.9341 12.6881C28.4807 13.1105 27.7696 13.0865 27.3458 12.6346C26.9219 12.1828 26.946 11.4741 27.3994 11.0517C27.8529 10.6296 28.5639 10.6533 28.9878 11.1052C29.4116 11.5571 29.3876 12.2657 28.9341 12.6881Z" fill="#ffffff"/>
<path d="M22.4698 18.7097C22.0163 19.1321 21.3053 19.1081 20.8814 18.6562C20.4576 18.2044 20.4816 17.4957 20.9351 17.0733C21.3885 16.6512 22.0996 16.6749 22.5234 17.1268C22.9473 17.5787 22.9232 18.2873 22.4698 18.7097Z" fill="#ffffff"/>
<path d="M18.4251 32.1982H17.3628V25.7096L22.08 22.1168L22.7251 22.9575L18.4251 26.2327V32.1982Z" fill="#ffffff"/>
<path d="M16.4912 32.1981C16.4912 31.4259 17.1193 30.8003 17.8939 30.8003C18.6687 30.8003 19.2967 31.4259 19.2967 32.1981C19.2967 32.9703 18.6687 33.5959 17.8939 33.5959C17.1193 33.5959 16.4912 32.9703 16.4912 32.1981Z" fill="#ffffff"/>
<path d="M21 22.5372C21 21.7651 21.6281 21.1394 22.4026 21.1394C23.1775 21.1394 23.8055 21.7651 23.8055 22.5372C23.8055 23.3094 23.1775 23.9351 22.4026 23.9351C21.6281 23.9351 21 23.3094 21 22.5372Z" fill="#ffffff"/>
<path d="M8.64186 19.199H7.57959V12.7103L12.2968 9.11754L12.9419 9.95825L8.64186 13.2334V19.199Z" fill="#ffffff"/>
<path d="M6.70801 19.1988C6.70801 18.4267 7.33608 17.801 8.11065 17.801C8.88546 17.801 9.51354 18.4267 9.51354 19.1988C9.51354 19.971 8.88546 20.5967 8.11065 20.5967C7.33608 20.5967 6.70801 19.971 6.70801 19.1988Z" fill="#ffffff"/>
<path d="M11.2168 9.53795C11.2168 8.76579 11.8449 8.14011 12.6194 8.14011C13.3943 8.14011 14.0223 8.76579 14.0223 9.53795C14.0223 10.3101 13.3943 10.9358 12.6194 10.9358C11.8449 10.9358 11.2168 10.3101 11.2168 9.53795Z" fill="#ffffff"/>
<path d="M19.6898 16.1514C19.6898 15.1628 18.8856 14.3614 17.8936 14.3614C16.9018 14.3614 16.0977 15.1628 16.0977 16.1514C16.0977 16.7553 16.3986 17.2879 16.858 17.6123L16.1852 21.8468H17.5499H18.2376H19.6022L18.9294 17.6123C19.3889 17.2879 19.6898 16.7553 19.6898 16.1514Z" fill="#ffffff"/>
</g>
</g>
<defs>
<clipPath id="clip0_4537_1552">
<rect width="35" height="35" fill="white" transform="translate(0.5 0.5)"/>
</clipPath>
</defs>
</svg>
