<svg width="24" height="24" viewBox="0 0 24 24" fill="none" xmlns="http://www.w3.org/2000/svg">
<path d="M12 16.5C12.5933 16.5 13.1734 16.3241 13.6667 15.9944C14.1601 15.6648 14.5446 15.1962 14.7716 14.6481C14.9987 14.0999 15.0581 13.4967 14.9424 12.9147C14.8266 12.3328 14.5409 11.7982 14.1213 11.3787C13.7018 10.9591 13.1672 10.6734 12.5853 10.5576C12.0033 10.4419 11.4001 10.5013 10.8519 10.7284C10.3038 10.9554 9.83524 11.3399 9.50559 11.8333C9.17595 12.3266 9 12.9067 9 13.5C9 14.2956 9.31607 15.0587 9.87868 15.6213C10.4413 16.1839 11.2044 16.5 12 16.5ZM12 12C12.2967 12 12.5867 12.088 12.8334 12.2528C13.08 12.4176 13.2723 12.6519 13.3858 12.926C13.4994 13.2001 13.5291 13.5017 13.4712 13.7926C13.4133 14.0836 13.2704 14.3509 13.0607 14.5607C12.8509 14.7704 12.5836 14.9133 12.2926 14.9712C12.0017 15.0291 11.7001 14.9994 11.426 14.8858C11.1519 14.7723 10.9176 14.58 10.7528 14.3334C10.588 14.0867 10.5 13.7967 10.5 13.5C10.5 13.1022 10.658 12.7206 10.9393 12.4393C11.2206 12.158 11.6022 12 12 12ZM10.5 4.5H13.5V6H10.5V4.5Z" fill="#525252"/>
<path d="M18 1.5H6C5.6023 1.5004 5.221 1.65856 4.93978 1.93978C4.65856 2.221 4.5004 2.6023 4.5 3V21C4.5004 21.3977 4.65856 21.779 4.93978 22.0602C5.221 22.3414 5.6023 22.4996 6 22.5H18C18.3976 22.4994 18.7788 22.3412 19.06 22.06C19.3412 21.7788 19.4994 21.3976 19.5 21V3C19.4996 2.6023 19.3414 2.221 19.0602 1.93978C18.779 1.65856 18.3977 1.5004 18 1.5ZM15 21H9V19.5C9 19.3011 9.07902 19.1103 9.21967 18.9697C9.36032 18.829 9.55109 18.75 9.75 18.75H14.25C14.4489 18.75 14.6397 18.829 14.7803 18.9697C14.921 19.1103 15 19.3011 15 19.5V21ZM16.5 21V19.5C16.5 18.9033 16.2629 18.331 15.841 17.909C15.419 17.4871 14.8467 17.25 14.25 17.25H9.75C9.15326 17.25 8.58097 17.4871 8.15901 17.909C7.73705 18.331 7.5 18.9033 7.5 19.5V21H6V3H18V21H16.5Z" fill="#525252"/>
</svg>
