<svg width="202" height="100" viewBox="0 0 202 100" fill="none" xmlns="http://www.w3.org/2000/svg">
<g clip-path="url(#clip0_3935_15501)">
<path d="M11.0479 100C4.83151 100 0 95.4762 0 89.4753C0 83.5051 4.80074 78.9506 11.0479 78.9506C14.8023 78.9506 17.8181 80.5816 19.7877 83.4743L16.0948 86.6133C14.8331 84.8592 13.2636 83.8128 10.9555 83.8128C7.50885 83.8128 5.41622 86.1209 5.41622 89.4753C5.41622 92.9219 7.63194 95.2915 11.2633 95.2915C13.202 95.2915 14.7407 94.6145 15.7255 93.4759V92.5219H10.9863V87.9673H21.0186V94.3683C19.203 97.5996 15.5716 100 11.0479 100Z" fill="white"/>
<path d="M25.8831 99.6307V79.3198H31.1762V94.8607H39.5775V99.6307H25.8831Z" fill="white"/>
<path d="M53.626 100C47.5636 100 42.7013 95.4762 42.7013 89.4753C42.7013 83.5051 47.5636 78.9506 53.626 78.9506C59.6885 78.9506 64.6123 83.5051 64.6123 89.4753C64.6123 95.4762 59.6885 100 53.626 100ZM53.6568 95.1377C56.7958 95.1377 59.1961 92.9219 59.1961 89.4753C59.1961 86.0901 56.7958 83.8128 53.6568 83.8128C50.3948 83.8128 48.1175 86.0901 48.1175 89.4753C48.1175 92.9219 50.3948 95.1377 53.6568 95.1377Z" fill="white"/>
<path d="M82.4418 88.7367C84.5036 89.5676 85.8269 91.1986 85.8269 93.599C85.8269 97.1687 82.8726 99.6307 78.9643 99.6307H69.4859V79.3198H76.8101C80.6876 79.3198 83.6727 81.7202 83.6727 85.3208C83.6727 86.7056 83.2111 87.875 82.4418 88.7367ZM76.4716 83.7821H74.5636V87.3519H76.4716C77.7334 87.3519 78.5027 86.6441 78.5027 85.567C78.5027 84.4899 77.7334 83.7821 76.4716 83.7821ZM78.6258 95.1684C79.8568 95.1684 80.6569 94.5837 80.6569 93.3836C80.6569 92.1834 79.8568 91.5987 78.6258 91.5987H74.5636V95.1684H78.6258Z" fill="white"/>
<path d="M102.73 99.6307L101.991 97.9381H94.6977L93.9592 99.6307H88.266L97.4982 78.9506H99.1907L108.423 99.6307H102.73ZM100.114 93.6913L98.3598 88.9829L96.575 93.6913H100.114Z" fill="white"/>
<path d="M112.368 99.6307V79.3198H117.661V94.8607H126.062V99.6307H112.368Z" fill="white"/>
<path d="M131.452 99.6307V79.3198H138.592C142.592 79.3198 145.085 81.7818 145.085 85.1977C145.085 88.6444 142.592 91.1371 138.592 91.1371H133.853V99.6307H131.452ZM133.853 88.9829H138.53C141.208 88.9829 142.592 87.4134 142.592 85.2285C142.592 83.0743 141.208 81.474 138.53 81.474H133.853V88.9829Z" fill="white"/>
<path d="M162.57 99.6307L160.846 95.507H150.876L149.152 99.6307H146.629L155.43 78.9813H156.323L165.124 99.6307H162.57ZM159.923 93.3528L155.861 83.3512L151.799 93.3528H159.923Z" fill="white"/>
<path d="M176.517 99.9692C173.285 99.9692 170.608 98.2766 169.038 95.5993L170.823 94.276C172.054 96.1532 173.87 97.7535 176.486 97.7535C178.886 97.7535 180.579 96.4302 180.579 94.3683C180.579 92.4911 179.194 91.7525 177.194 90.7985L174.916 89.7214C172.793 88.7059 170.331 87.2903 170.331 84.2745C170.331 81.0432 173.162 78.9813 176.455 78.9813C179.225 78.9813 181.563 80.4277 182.825 82.428L181.071 83.7513C179.963 82.1203 178.271 81.1971 176.424 81.1971C174.547 81.1971 172.824 82.1511 172.824 84.1514C172.824 85.9978 174.239 86.6748 176.086 87.5673L178.332 88.6444C181.287 90.06 183.071 91.5371 183.071 94.3068C183.071 97.7227 180.271 99.9692 176.517 99.9692Z" fill="white"/>
<path d="M195.373 99.9692C192.142 99.9692 189.464 98.2766 187.895 95.5993L189.68 94.276C190.911 96.1532 192.726 97.7535 195.342 97.7535C197.742 97.7535 199.435 96.4302 199.435 94.3683C199.435 92.4911 198.05 91.7525 196.05 90.7985L193.773 89.7214C191.649 88.7059 189.187 87.2903 189.187 84.2745C189.187 81.0432 192.018 78.9813 195.311 78.9813C198.081 78.9813 200.42 80.4277 201.682 82.428L199.927 83.7513C198.82 82.1203 197.127 81.1971 195.281 81.1971C193.403 81.1971 191.68 82.1511 191.68 84.1514C191.68 85.9978 193.096 86.6748 194.942 87.5673L197.189 88.6444C200.143 90.06 201.928 91.5371 201.928 94.3068C201.928 97.7227 199.127 99.9692 195.373 99.9692Z" fill="white"/>
<path d="M78.1723 0C76.7331 0 75.5664 1.16106 75.5664 2.59331V58.9546C75.5664 60.3869 76.7331 61.5479 78.1724 61.5479H125.253C126.692 61.5479 127.859 60.3869 127.859 58.9546V35.0962H106.38C105.986 35.0962 105.896 35.6464 106.271 35.7701L111.759 37.5841C111.861 37.6177 111.939 37.6951 111.975 37.791V53.2493L101.452 50.1374V9.6817H127.859V2.59331C127.859 1.16107 126.692 0 125.253 0H78.1723Z" fill="url(#paint0_linear_3935_15501)"/>
<path d="M112 30V15H123V30H112Z" fill="#4082C7"/>
<ellipse cx="109.225" cy="43.2759" rx="0.961686" ry="0.961686" fill="url(#paint1_linear_3935_15501)"/>
</g>
<defs>
<linearGradient id="paint0_linear_3935_15501" x1="74.9584" y1="0.172887" x2="125.572" y2="60.5801" gradientUnits="userSpaceOnUse">
<stop stop-color="#369CDC"/>
<stop offset="1" stop-color="#5252A2"/>
</linearGradient>
<linearGradient id="paint1_linear_3935_15501" x1="108.241" y1="42.3196" x2="109.759" y2="44.452" gradientUnits="userSpaceOnUse">
<stop stop-color="#369CDC"/>
<stop offset="1" stop-color="#5252A2"/>
</linearGradient>
<clipPath id="clip0_3935_15501">
<rect width="202" height="100" fill="white"/>
</clipPath>
</defs>
</svg>
