<svg width="24" height="24" viewBox="0 0 24 24" fill="none" xmlns="http://www.w3.org/2000/svg">
<path d="M14.8818 12.2272C14.8818 13.0228 14.5658 13.7859 14.0032 14.3485C13.4405 14.9111 12.6775 15.2272 11.8818 15.2272C11.0862 15.2272 10.3231 14.9111 9.76052 14.3485C9.19791 13.7859 8.88184 13.0228 8.88184 12.2272C8.88184 11.4315 9.19791 10.6684 9.76052 10.1058C10.3231 9.54323 11.0862 9.22716 11.8818 9.22716C12.6775 9.22716 13.4405 9.54323 14.0032 10.1058C14.5658 10.6684 14.8818 11.4315 14.8818 12.2272Z" stroke="#8F8F8F" stroke-width="2" stroke-linecap="round" stroke-linejoin="round"/>
<path d="M2.33984 12.2272C3.61384 8.17016 7.40484 5.22716 11.8818 5.22716C16.3598 5.22716 20.1498 8.17016 21.4238 12.2272C20.1498 16.2842 16.3598 19.2272 11.8818 19.2272C7.40484 19.2272 3.61384 16.2842 2.33984 12.2272Z" stroke="#8F8F8F" stroke-width="2" stroke-linecap="round" stroke-linejoin="round"/>
</svg>
